<svg data-v-0dd9719b="" version="1.0" xmlns="http://www.w3.org/2000/svg" xmlns:xlink="http://www.w3.org/1999/xlink" width="100%" height="100%" viewBox="0 0 340.000000 250.000000" preserveAspectRatio="xMidYMid meet" color-interpolation-filters="sRGB" style="margin: auto;"> <rect data-v-0dd9719b="" x="0" y="0" width="100%" height="100%" fill="#fff" fill-opacity="1" class="background"></rect> <rect data-v-0dd9719b="" x="0" y="0" width="100%" height="100%" fill="url(#watermark)" fill-opacity="1" class="watermarklayer"></rect> <g data-v-0dd9719b="" fill="#333" class="icon-text-wrapper icon-svg-group iconsvg" transform="translate(47.26499938964844,95.01139640808105)"><g class="iconsvg-imagesvg" transform="translate(0,0)"><g><rect fill="#333" fill-opacity="0" stroke-width="2" x="0" y="0" width="60" height="59.977208660708925" class="image-rect"></rect> <svg x="0" y="0" width="60" height="59.977208660708925" filtersec="colorsb4196107695" class="image-svg-svg primary" style="overflow: visible;"><svg xmlns="http://www.w3.org/2000/svg" viewBox="-0.024392234161496162 -0.00439166696742177 206.4888916015625 206.41061401367188"><title>资源 7</title><g fill-rule="evenodd"><path d="M176.24 176.18a102.91 102.91 0 0 1-76.44 30.16c-8.75-.29-10.94-10.72-6.79-17 17.92-27.07 75.72-28.09 101.23-60a56.23 56.23 0 0 0 10.57-21.88c.56-2.21 1.26-4.67 1.63-6.42a102.92 102.92 0 0 1-30.2 75.1z" fill="#03b2de" opacity=".48"></path><path d="M176.18 176.24a102.92 102.92 0 0 0 30.16-76.44c-.29-8.76-10.73-10.94-17-6.79C168.21 107 163 145.3 146.5 173.56c-9.44 16.21-25.92 31.19-45.38 32.82a102.78 102.78 0 0 0 75.06-30.14z" fill="#8e03ff" opacity=".48"></path><path d="M30.22 30.28A102.94 102.94 0 0 1 106.66.12c8.77.29 10.94 10.73 6.79 17-17.91 27.07-75.72 28.09-101.23 60A56.23 56.23 0 0 0 1.65 99c-.56 2.17-1.25 4.63-1.65 6.38a102.93 102.93 0 0 1 30.2-75.1z" fill="#00deb9" opacity=".48"></path><path d="M30.28 30.22A102.94 102.94 0 0 0 .12 106.66c.29 8.77 10.73 10.94 17 6.79 27.07-17.91 28.09-75.72 60-101.23A56.23 56.23 0 0 1 99 1.65c2.21-.56 4.67-1.25 6.42-1.63a102.93 102.93 0 0 0-75.1 30.2z" fill="#1d88e1" opacity=".48"></path><path d="M44 187.8c-32.11-55.4 181.83-82.46 145-142a103.71 103.71 0 0 0-26.5-27.07c25.84 44.36-100 69.18-138.89 106.54C12.3 136.12 10.9 151.63 20 164.34a103.82 103.82 0 0 0 24 23.46z" fill="#8e03ff" opacity=".48"></path><path d="M187.75 44c-51.41-29.78-77.2 148.08-127.43 150-4.47.18-9.6-2-14.56-5a103.71 103.71 0 0 1-27.07-26.5C71.5 193.28 96.63 9 148.17 12.54c4.69.32 10.6 3.57 16.11 7.51a104.32 104.32 0 0 1 23.47 24z" fill="#1d88e1" opacity=".48"></path></g></svg></svg> <!----></g></g> <g transform="translate(67,1.0873527526855469)"><g data-gra="path-name" fill-rule="" class="tp-name iconsvg-namesvg" transform="translate(0,0)"><g transform="scale(1)"><g><path d="M3.74-37.97L3.74-37.97 4.09-38.19Q10.42-37.31 11.95-34.15L11.95-34.15Q12.92-32.21 11.6-30.63L11.6-30.63Q10.33-29.09 8.26-29.71L8.26-29.71Q7.51-29.93 6.81-30.45L6.81-30.45Q6.37-33.93 3.74-37.97ZM0.83-27.64L0.83-27.64 1.23-27.86Q7.29-26.98 8.66-23.95L8.66-23.95Q9.49-22.02 8.13-20.57L8.13-20.57Q6.77-19.07 4.75-19.82L4.75-19.82Q4.09-20.04 3.47-20.52L3.47-20.52Q3.25-24.3 0.83-27.64ZM13.32-31.16L13.32-31.16 14.02-30.98Q10.72-18.81 9.58-12.61L9.58-12.61Q9.01-9.71 9.05-8.17L9.05-8.17Q9.1-7.12 10.11-4.66 11.12-2.2 11.03 0.13L11.03 0.13Q10.99 1.93 9.82 3.05 8.66 4.17 6.86 4.17L6.86 4.17Q4.61 4.17 4.04 1.8L4.04 1.8Q4.75-1.8 4.66-4.79 4.57-7.78 3.74-8.31L3.74-8.31Q2.81-8.96 1.36-9.1L1.36-9.1 1.36-9.89 3.38-9.89Q3.78-9.89 3.96-9.93 4.13-9.98 4.35-10.17 4.57-10.37 4.79-10.85L4.79-10.85Q5.63-12.3 10.5-24.3L10.5-24.3Q12.26-28.52 13.32-31.16ZM23.73-23.51L23.73-23.51 24.13-23.73Q29.44-22.72 30.41-20L30.41-20Q31.07-18.24 29.71-17.09L29.71-17.09Q28.26-15.86 26.41-16.92L26.41-16.92Q26.15-17.09 25.84-17.31L25.84-17.31Q25.66-20 23.73-23.51ZM22.72-13.49L22.72-13.49 23.07-13.71Q28.92-13.14 30.28-10.28L30.28-10.28Q31.11-8.53 29.84-7.21L29.84-7.21Q28.52-5.8 26.59-6.64L26.59-6.64Q26.19-6.81 25.8-7.08L25.8-7.08Q25.27-10.02 22.72-13.49ZM19.95-5.49L19.95-5.49 31.99-5.49Q32.52-8.09 32.87-14.28L32.87-14.28 21.18-14.28Q20.26-7.51 19.95-5.49ZM33.18-24.13L33.18-24.13 22.41-24.13Q22.28-22.98 21.91-20.06 21.53-17.14 21.36-15.51L21.36-15.51 32.92-15.51Q33.09-19.2 33.18-24.13ZM38.06-6.72L38.06-6.72 39.86-9.58Q42.8-6.77 44.43-4.97L44.43-4.97Q44.21-4.22 43.2-4.22L43.2-4.22 37.75-4.22Q37 0.22 35.33 1.85L35.33 1.85Q33.09 4.04 28.87 4.04L28.87 4.04Q28.87 1.05 27.99 0.04L27.99 0.04Q26.85-1.27 23.77-1.98L23.77-1.98 23.77-2.5Q27.47-2.24 29.4-2.24L29.4-2.24Q30.41-2.24 30.92-2.7 31.42-3.16 31.68-4.22L31.68-4.22 19.78-4.22Q19.69-3.52 19.47-2.33 19.25-1.14 19.2-0.88L19.2-0.88Q17.23 0.18 13.27-0.62L13.27-0.62Q14.41-6.5 15.51-14.28L15.51-14.28 12.66-14.28 12.3-15.51 15.69-15.51Q16.66-22.46 16.79-23.55L16.79-23.55Q15.03-21.97 12.52-20.35L12.52-20.35 12-20.7Q14.19-23.95 16.11-28.78 18.02-33.62 19.03-38.54L19.03-38.54 26.94-35.86Q26.63-34.94 25.14-34.98L25.14-34.98Q24.21-33.05 23.03-31.11L23.03-31.11 35.16-31.11 38.14-35.24Q41.53-32.43 43.51-30.54L43.51-30.54Q43.33-29.84 42.28-29.84L42.28-29.84 22.24-29.84Q21.4-28.48 20.04-26.89L20.04-26.89 23.51-25.4 32.65-25.4 35.73-28.43 40.87-23.99Q40.25-23.29 38.89-23.12L38.89-23.12Q38.85-21.71 38.78-19.36 38.72-17.01 38.72-16.17L38.72-16.17 40.52-19.16Q43.07-16.66 44.43-14.99L44.43-14.99Q44.3-14.28 43.24-14.28L43.24-14.28 38.63-14.28Q38.45-10.59 38.06-6.72ZM78.05-8L78.05-8 70.22-8 70.22 1.45Q70.18 1.58 69.63 1.87 69.08 2.15 67.85 2.42 66.62 2.68 65.13 2.68L65.13 2.68 63.94 2.68 63.94-8 56.65-8 56.29-9.27 63.94-9.27 63.94-14.59 57-14.59 56.65-15.82 68.33-15.82Q69.3-19.47 69.87-23.86L69.87-23.86 76.95-21.93Q76.64-21.01 75.23-21.05L75.23-21.05Q72.33-17.97 69.79-15.82L69.79-15.82 72.33-15.82 74.71-18.68Q77.39-16.74 79.1-15.29L79.1-15.29Q78.93-14.59 77.92-14.59L77.92-14.59 70.22-14.59 70.22-9.27 71.76-9.27 74.44-12.57Q77.43-10.33 79.28-8.75L79.28-8.75Q79.06-8 78.05-8ZM58.58-23.51L58.58-23.51 58.93-23.73Q64.51-22.85 65.61-20.08L65.61-20.08Q66.31-18.33 64.95-17.01L64.95-17.01Q63.54-15.64 61.61-16.44L61.61-16.44Q61-16.7 60.47-17.18L60.47-17.18Q60.56-20.57 58.58-23.51ZM87.58-30.72L87.58-30.72 70.62-30.72 70.62-25.49 79.01-25.49 81.91-28.65 87.8-24.13Q87.14-23.38 86-23.16L86-23.16 86-2.59Q86-0.92 85.74 0.13 85.47 1.19 84.66 2.13 83.85 3.08 82.22 3.58 80.6 4.09 78 4.31L78 4.31Q77.78 1.19 76.86-0.04L76.86-0.04Q75.63-1.63 72.82-2.07L72.82-2.07 72.82-2.64Q77.34-2.33 78.57-2.33L78.57-2.33Q79.45-2.33 79.45-3.25L79.45-3.25 79.45-24.21 55.63-24.21 55.63 1.98Q55.63 2.59 53.83 3.41 52.03 4.22 50.14 4.22L50.14 4.22 49.09 4.22 49.09-28.17 56.07-25.49 63.98-25.49 63.98-30.72 46.54-30.72 46.19-31.99 63.98-31.99 63.98-38.32 72.25-37.71Q72.11-36.65 70.62-36.39L70.62-36.39 70.62-31.99 78.88-31.99 82.44-36.43Q86.44-33.49 88.9-31.46L88.9-31.46Q88.68-30.72 87.58-30.72ZM111.49-33.49L111.49-33.49 111.88-33.75Q118.39-33 120.1-29.71L120.1-29.71Q121.16-27.64 119.84-25.97L119.84-25.97Q118.56-24.3 116.5-24.87L116.5-24.87Q115.66-25.09 114.87-25.71L114.87-25.71Q114.74-27.73 113.8-29.86 112.85-31.99 111.49-33.49ZM110.74-22.06L110.74-22.06 111.05-22.32Q117.6-21.88 119.4-18.76L119.4-18.76Q120.5-16.79 119.22-15.07L119.22-15.07Q118.04-13.4 115.97-13.84L115.97-13.84Q115.05-14.02 114.21-14.63L114.21-14.63Q114.04-16.57 113.07-18.61 112.1-20.65 110.74-22.06ZM110.52-22.68L104.46-22.68 104.46-20.52Q109.91-18.85 110.96-15.69L110.96-15.69Q111.67-13.67 110.21-12.35L110.21-12.35Q108.81-11.03 106.92-12L106.92-12Q106.48-12.22 106.04-12.61L106.04-12.61Q105.95-15.07 104.46-18.81L104.46-18.81 104.46 2.55Q104.41 2.77 103.82 3.16 103.23 3.56 101.98 3.93 100.72 4.31 99.32 4.31L99.32 4.31 98.13 4.31 98.13-11.07Q95.19-7.38 91.14-4.44L91.14-4.44 90.62-4.92Q95.32-11.38 97.56-22.68L97.56-22.68 91.93-22.68 91.58-23.95 98.13-23.95 98.13-30.63Q94.75-30.32 91.23-30.23L91.23-30.23 91.14-30.67Q94.61-32.04 98.42-34.28 102.22-36.52 104.46-38.41L104.46-38.41 111.36-32.3Q110.39-31.46 108.06-32.21L108.06-32.21Q106.83-31.9 104.46-31.51L104.46-31.51 104.46-24.13 107.01-27.91Q110.04-25.18 111.8-23.38L111.8-23.38Q111.62-22.68 110.52-22.68L110.52-22.68ZM128.23-35.16L128.23-12.92 130.12-16.57Q133.02-14.24 134.78-12.66L134.78-12.66Q134.78-12.35 134.47-12.08 134.17-11.82 133.77-11.73L133.77-11.73 128.23-10.72 128.23 2.02Q128.23 2.5 126.52 3.27 124.8 4.04 123.18 4.04L123.18 4.04 121.95 4.04 121.95-9.54 108.24-6.99 107.62-8.13 121.95-10.81 121.95-37.22 129.9-36.43Q129.77-35.38 128.23-35.16L128.23-35.16ZM144.62-14.41L144.62-14.41 148.4-14.41 148.4-23.73 144.8-23.73 144.8-21.09Q144.8-16.7 144.62-14.41ZM148.4-24.96L148.4-34.1 144.8-34.1 144.8-24.96 148.4-24.96ZM147.96-35.38L150.64-38.36 156.09-34.1Q155.65-33.57 154.51-33.31L154.51-33.31 154.51-2.55Q154.51 0.88 153.19 2.4 151.88 3.91 147.57 4.26L147.57 4.26Q147.44 1.05 146.82-0.04L146.82-0.04Q146.03-1.49 143.92-1.93L143.92-1.93 143.92-2.5Q146.91-2.33 147.61-2.33L147.61-2.33Q148.4-2.33 148.4-3.21L148.4-3.21 148.4-13.14 144.54-13.14Q143.48-1.71 136.49 4.26L136.49 4.26 136.01 4Q137.42 0.62 138.1-4.24 138.78-9.1 138.85-12.08 138.91-15.07 138.91-21.09L138.91-21.09 138.91-37.71 145.72-35.38 147.96-35.38ZM161.41-26.06L161.41-26.06 163.3-26.06 163.3-32.65 163.13-32.65Q162.42-29.22 161.41-26.06ZM169.54 0.88L170.29 0.88 173.54-3.56Q177.19-0.53 179.3 1.45L179.3 1.45Q179.12 2.15 177.98 2.15L177.98 2.15 155 2.15 154.6 0.88 163.3 0.88 163.3-12.44 157.1-12.44 156.75-13.67 163.3-13.67 163.3-24.79 161.02-24.79Q158.69-18.06 155.43-13.93L155.43-13.93 154.82-14.28Q156.75-23.6 156.75-35.2L156.75-35.2 163.3-34.1 163.3-38.5 171.04-37.75Q170.9-36.78 169.54-36.61L169.54-36.61 169.54-26.06 170.73-26.06 173.72-30.1Q177.01-27.38 178.99-25.53L178.99-25.53Q178.77-24.79 177.76-24.79L177.76-24.79 169.54-24.79 169.54-13.67 170.33-13.67 173.06-17.62Q176.22-14.94 178.02-13.14L178.02-13.14Q177.85-12.44 176.79-12.44L176.79-12.44 169.54-12.44 169.54 0.88Z" transform="translate(-0.8300000429153442, 38.540000915527344)"></path></g> <!----> <!----> <!----> <!----> <!----> <!----> <!----></g></g> <g data-gra="path-slogan" fill-rule="" class="tp-slogan iconsvg-slogansvg" fill="#333" transform="translate(5,48.85000228881836)"><rect x="0" height="1" y="3.9750003814697266" width="28.665000915527344"></rect> <rect height="1" y="3.9750003814697266" width="28.665000915527344" x="139.80500030517578"></rect> <g transform="translate(31.665000915527344,0)"><g transform="scale(1)"><path d="M2.06-5.06L6.56-5.06L6.56-8.58L7.73-8.58L7.73 0L6.56 0L6.56-3.98L2.06-3.98L2.06 0L0.89 0L0.89-8.58L2.06-8.58L2.06-5.06ZM15.19 0L14.34-2.48L10.88-2.48L9.98 0L8.81 0L12.05-8.58L13.36-8.58L16.45 0L15.19 0ZM12.61-7.31L11.25-3.52L13.92-3.52L12.66-7.31L12.61-7.31ZM17.67-8.58L18.84-8.58L18.84 0L17.67 0L17.67-8.58ZM22.22-8.58L26.53-1.64L26.53-8.58L27.66-8.58L27.66 0L26.34 0L21.98-6.94L21.94-6.94L21.94 0L20.81 0L20.81-8.58L22.22-8.58ZM35.11 0L34.27-2.48L30.80-2.48L29.91 0L28.73 0L31.97-8.58L33.28-8.58L36.38 0L35.11 0ZM32.53-7.31L31.17-3.52L33.84-3.52L32.58-7.31L32.53-7.31ZM38.81-8.58L43.13-1.64L43.13-8.58L44.25-8.58L44.25 0L42.94 0L38.58-6.94L38.53-6.94L38.53 0L37.41 0L37.41-8.58L38.81-8.58ZM51.89-4.31L50.53-3.05L50.53 0L49.36 0L49.36-8.58L50.53-8.58L50.53-4.41L54.70-8.58L56.34-8.58L52.73-5.11L56.44 0L54.89 0L51.89-4.31ZM58.64-1.03L63.80-1.03L63.80 0L57.47 0L57.47-8.58L63.70-8.58L63.70-7.59L58.64-7.59L58.64-4.92L63.33-4.92L63.33-3.89L58.64-3.89L58.64-1.03ZM71.58-6.09L71.58-6.09L70.50-6.09Q70.41-7.73 68.34-7.83L68.34-7.83Q66.42-7.78 66.42-6.33L66.42-6.33Q66.42-5.39 67.45-5.25L67.45-5.25L69.89-4.69Q71.81-4.22 71.81-2.34L71.81-2.34Q71.77 0.05 68.44 0.14L68.44 0.14Q66.61 0.14 65.86-0.61L65.86-0.61Q64.92-1.31 64.97-2.77L64.97-2.77L66.09-2.77Q66.14-0.80 68.44-0.75L68.44-0.75Q70.69-0.80 70.73-2.20L70.73-2.20Q70.92-3.38 68.86-3.75L68.86-3.75L67.08-4.13Q65.25-4.64 65.25-6.19L65.25-6.19Q65.39-8.72 68.25-8.81L68.25-8.81Q71.48-8.81 71.58-6.09ZM74.44-5.06L78.94-5.06L78.94-8.58L80.11-8.58L80.11 0L78.94 0L78.94-3.98L74.44-3.98L74.44 0L73.27 0L73.27-8.58L74.44-8.58L74.44-5.06ZM83.20-1.03L88.36-1.03L88.36 0L82.03 0L82.03-8.58L88.27-8.58L88.27-7.59L83.20-7.59L83.20-4.92L87.89-4.92L87.89-3.89L83.20-3.89L83.20-1.03ZM91.27-8.58L95.58-1.64L95.58-8.58L96.70-8.58L96.70 0L95.39 0L91.03-6.94L90.98-6.94L90.98 0L89.86 0L89.86-8.58L91.27-8.58ZM104.91-3.61L102.28-3.61L102.28-4.59L106.03-4.59L106.03 0L105.28 0L105-1.08Q104.02 0.09 102.19 0.14L102.19 0.14Q100.45 0.14 99.52-0.75L99.52-0.75Q98.11-2.06 98.16-4.36L98.16-4.36Q98.48-8.63 102.23-8.81L102.23-8.81Q105.42-8.63 105.89-6L105.89-6L104.77-6Q104.30-7.78 102.19-7.83L102.19-7.83Q99.52-7.64 99.38-4.31L99.38-4.31Q99.38-0.75 102.23-0.75L102.23-0.75Q103.27-0.75 104.02-1.31L104.02-1.31Q104.95-2.06 104.91-3.61L104.91-3.61Z" transform="translate(-0.890625, 8.8125)"></path></g></g></g></g></g><defs v-gra="od"></defs></svg>